<svg width="1536" height="909" viewBox="0 0 1536 909" fill="none" xmlns="http://www.w3.org/2000/svg">
<g clip-path="url(#clip0_7_2)">
<path d="M1377.64 679.288C1320.64 725.849 1242.25 741.428 1169.63 733.861C1110.62 727.721 1052.69 696.318 1018.11 649.406C1017.46 648.525 1016.8 647.618 1016.18 646.724C1002.09 627.179 992.538 604.738 988.215 581.034C981.999 545.947 986.26 507.894 966.944 477.959C941.891 439.121 888.238 432.801 842.068 434.25C798.913 435.604 721.903 407.683 667.601 380.128C478.089 283.964 84.1466 73.179 155.56 0.218209C592.568 0.661987 1078.68 -0.581204 1535.69 0.366004C1535.69 0.366004 1535.64 233.658 1536 491.862C1506.61 575.597 1435.85 631.734 1377.64 679.288Z" fill="#3F3D56"/>
<path d="M539.364 99.4478C539.632 97.0512 538.498 94.9574 536.831 94.7711C535.165 94.5848 533.597 96.3766 533.33 98.7732C533.062 101.17 534.196 103.264 535.862 103.45C537.529 103.636 539.096 101.844 539.364 99.4478Z" fill="#FF6584"/>
<path d="M626.908 261.033C627.559 258.459 625.091 255.614 621.394 254.676C617.697 253.739 614.171 255.065 613.52 257.638C612.868 260.211 615.336 263.057 619.033 263.994C622.73 264.931 626.256 263.606 626.908 261.033Z" fill="#FF6584"/>
<path d="M636.711 279.886C636.979 277.489 635.845 275.395 634.178 275.209C632.512 275.023 630.944 276.815 630.676 279.211C630.409 281.608 631.543 283.702 633.209 283.888C634.875 284.074 636.443 282.282 636.711 279.886Z" fill="#E6E6E6"/>
<path d="M586.151 252.707C586.419 250.31 585.285 248.217 583.618 248.03C581.952 247.844 580.384 249.636 580.116 252.032C579.849 254.429 580.983 256.523 582.649 256.709C584.315 256.895 585.883 255.103 586.151 252.707Z" fill="#E6E6E6"/>
<path d="M617.091 54.9045C617.358 52.508 616.224 50.4142 614.558 50.2279C612.892 50.0416 611.324 51.8334 611.056 54.2299C610.788 56.6265 611.922 58.7203 613.589 58.9065C615.255 59.0928 616.823 57.3011 617.091 54.9045Z" fill="#E6E6E6"/>
<path d="M798.201 236.852C798.469 234.456 797.335 232.362 795.668 232.176C794.002 231.99 792.434 233.781 792.166 236.178C791.899 238.574 793.033 240.668 794.699 240.854C796.365 241.041 797.933 239.249 798.201 236.852Z" fill="#E6E6E6"/>
<path d="M306.939 14.8911C307.207 12.4945 306.073 10.4007 304.407 10.2144C302.74 10.0281 301.172 11.8199 300.905 14.2165C300.637 16.613 301.771 18.7068 303.437 18.8931C305.104 19.0794 306.671 17.2876 306.939 14.8911Z" fill="#E6E6E6"/>
<path d="M410.323 121.342C410.591 118.945 409.457 116.852 407.79 116.665C406.124 116.479 404.556 118.271 404.288 120.667C404.021 123.064 405.155 125.158 406.821 125.344C408.487 125.53 410.055 123.739 410.323 121.342Z" fill="#E6E6E6"/>
<path d="M646.521 239.117C646.789 236.721 645.655 234.627 643.988 234.441C642.322 234.254 640.754 236.046 640.486 238.443C640.219 240.839 641.353 242.933 643.019 243.119C644.686 243.306 646.253 241.514 646.521 239.117Z" fill="#E6E6E6"/>
<path d="M509.934 74.5338C510.201 72.1372 509.067 70.0434 507.401 69.8571C505.735 69.6709 504.167 71.4626 503.899 73.8592C503.631 76.2557 504.765 78.3495 506.432 78.5358C508.098 78.7221 509.666 76.9303 509.934 74.5338Z" fill="#E6E6E6"/>
<path d="M635.956 141.726C636.224 139.33 635.09 137.236 633.424 137.05C631.757 136.863 630.189 138.655 629.922 141.052C629.654 143.448 630.788 145.542 632.454 145.728C634.121 145.914 635.689 144.123 635.956 141.726Z" fill="#E6E6E6"/>
<path d="M1466.63 172.23C1393.02 222.278 1295.52 254.389 1195.36 262.09C1185.53 262.851 1175.68 263.371 1165.8 263.651C1163.61 263.718 1161.42 263.758 1159.21 263.798C1155.63 263.865 1152.03 263.892 1148.44 263.892C1144.15 263.892 1139.86 263.847 1135.56 263.758C1110.71 263.229 1085.96 261.252 1061.53 257.846C1060.64 257.712 1059.76 257.592 1058.87 257.459C1055.01 256.912 1051.17 256.324 1047.34 255.697C1039.99 254.509 1032.69 253.192 1025.42 251.747C1023.06 251.28 1020.7 250.799 1018.34 250.292C1014.96 249.585 1011.6 248.837 1008.24 248.076C1006.98 247.783 1005.72 247.503 1004.46 247.196C1003.18 246.902 1001.9 246.595 1000.62 246.275C992.822 244.406 985.087 242.378 977.42 240.189C933.754 227.865 892.876 210.809 856.163 189.594C851.083 186.644 845.931 183.548 840.962 180.545C814.251 164.45 786.627 147.807 752.956 144.177C716.599 140.266 681.666 152.358 647.904 164.049C636.448 168.013 624.609 172.11 612.898 175.54C555.73 191.99 492.726 194.191 433.67 181.8C432.446 181.559 431.222 181.292 430.016 181.026V178.236C431.222 178.503 432.446 178.77 433.67 179.024C492.231 191.477 554.794 189.379 611.546 173.058C623.148 169.668 634.95 165.584 646.351 161.634C680.607 149.769 716.032 137.504 753.486 141.534C788.162 145.271 816.188 162.154 843.282 178.49C848.252 181.479 853.385 184.576 858.428 187.512C894.898 208.591 935.512 225.531 978.9 237.76H978.918C986.263 239.842 993.699 241.804 1001.17 243.619C1002.25 243.872 1003.33 244.126 1004.4 244.393C1005.61 244.673 1006.83 244.953 1008.04 245.234C1011.13 245.954 1014.22 246.64 1017.32 247.289C1020.35 247.956 1023.41 248.588 1026.47 249.184H1026.49C1034.35 250.746 1042.25 252.156 1050.21 253.415C1053.81 254.002 1057.41 254.536 1061.04 255.043C1061.83 255.163 1062.63 255.27 1063.43 255.377C1086.86 258.607 1110.6 260.508 1134.43 261.062H1134.45C1142.73 261.249 1150.99 261.271 1159.24 261.129C1161.4 261.089 1163.54 261.036 1165.67 260.982C1175.01 260.715 1184.33 260.235 1193.64 259.541H1193.66C1293.51 252.08 1390.78 220.156 1464.15 170.269C1464.51 170.03 1464.98 169.904 1465.46 169.918C1465.94 169.933 1466.4 170.087 1466.73 170.346C1467.06 170.605 1467.23 170.949 1467.21 171.302C1467.2 171.656 1466.99 171.989 1466.63 172.23Z" fill="#FFC561"/>
<path d="M710.304 121.248C710.222 121.59 710.082 121.915 709.89 122.209V118.486C710.377 119.319 710.525 120.308 710.304 121.248Z" fill="#FF6584"/>
<path d="M720.83 135.384C721.098 132.988 719.964 130.894 718.298 130.708C716.631 130.522 715.063 132.313 714.796 134.71C714.528 137.106 715.662 139.2 717.328 139.386C718.995 139.573 720.563 137.781 720.83 135.384Z" fill="#E6E6E6"/>
<path d="M724.543 163.689C724.81 161.292 723.676 159.198 722.01 159.012C720.344 158.826 718.776 160.618 718.508 163.014C718.24 165.411 719.374 167.504 721.041 167.691C722.707 167.877 724.275 166.085 724.543 163.689Z" fill="#3F3D56"/>
<path d="M1383.51 389.406C1384.16 386.833 1381.69 383.988 1378 383.05C1374.3 382.113 1370.77 383.439 1370.12 386.012C1369.47 388.585 1371.94 391.431 1375.64 392.368C1379.33 393.305 1382.86 391.979 1383.51 389.406Z" fill="white"/>
<path d="M1338.36 389.115C1339.01 386.542 1336.55 383.697 1332.85 382.759C1329.15 381.822 1325.63 383.148 1324.97 385.721C1324.32 388.294 1326.79 391.14 1330.49 392.077C1334.18 393.014 1337.71 391.688 1338.36 389.115Z" fill="#3F3D56"/>
<path d="M1391.98 426.88C1392.63 424.307 1390.16 421.462 1386.47 420.524C1382.77 419.587 1379.25 420.913 1378.59 423.486C1377.94 426.059 1380.41 428.905 1384.11 429.842C1387.8 430.779 1391.33 429.453 1391.98 426.88Z" fill="#FF6584"/>
<path d="M1402.51 441.011C1402.77 438.614 1401.64 436.52 1399.97 436.334C1398.31 436.148 1396.74 437.94 1396.47 440.336C1396.2 442.733 1397.34 444.826 1399 445.013C1400.67 445.199 1402.24 443.407 1402.51 441.011Z" fill="#E6E6E6"/>
<path d="M1406.22 469.315C1406.49 466.918 1405.35 464.825 1403.69 464.638C1402.02 464.452 1400.45 466.244 1400.18 468.64C1399.92 471.037 1401.05 473.131 1402.72 473.317C1404.38 473.503 1405.95 471.712 1406.22 469.315Z" fill="#3F3D56"/>
<path d="M1360.06 415.375C1360.33 412.979 1359.2 410.885 1357.53 410.699C1355.86 410.512 1354.29 412.304 1354.03 414.701C1353.76 417.097 1354.89 419.191 1356.56 419.377C1358.23 419.564 1359.79 417.772 1360.06 415.375Z" fill="#E6E6E6"/>
<path d="M1382.78 406.836C1383.05 404.439 1381.92 402.345 1380.25 402.159C1378.58 401.973 1377.02 403.765 1376.75 406.161C1376.48 408.558 1377.61 410.652 1379.28 410.838C1380.95 411.024 1382.51 409.232 1382.78 406.836Z" fill="#FF6584"/>
<path d="M1354.79 383.765C1355.06 381.369 1353.93 379.275 1352.26 379.088C1350.59 378.902 1349.02 380.694 1348.76 383.09C1348.49 385.487 1349.62 387.581 1351.29 387.767C1352.96 387.953 1354.52 386.162 1354.79 383.765Z" fill="#3F3D56"/>
<path d="M776.538 73.1032C777.19 70.5302 774.721 67.6845 771.024 66.7472C767.327 65.8098 763.802 67.1358 763.15 69.7088C762.498 72.2818 764.967 75.1275 768.664 76.0649C772.361 77.0022 775.886 75.6762 776.538 73.1032Z" fill="white"/>
<path d="M731.39 72.8121C732.042 70.2391 729.573 67.3934 725.876 66.456C722.179 65.5187 718.654 66.8447 718.002 69.4177C717.35 71.9907 719.819 74.8364 723.516 75.7737C727.213 76.7111 730.738 75.3851 731.39 72.8121Z" fill="#3F3D56"/>
<path d="M785.01 110.577C785.662 108.004 783.193 105.158 779.496 104.221C775.799 103.284 772.274 104.61 771.622 107.183C770.97 109.756 773.439 112.601 777.136 113.539C780.833 114.476 784.358 113.15 785.01 110.577Z" fill="#FF6584"/>
<path d="M795.534 124.708C795.802 122.311 794.668 120.217 793.002 120.031C791.335 119.845 789.768 121.636 789.5 124.033C789.232 126.429 790.366 128.523 792.032 128.71C793.699 128.896 795.267 127.104 795.534 124.708Z" fill="#E6E6E6"/>
<path d="M808.583 145.755C808.85 143.358 807.717 141.264 806.05 141.078C804.384 140.892 802.816 142.684 802.548 145.08C802.281 147.477 803.414 149.571 805.081 149.757C806.747 149.943 808.315 148.151 808.583 145.755Z" fill="#E6E6E6"/>
<path d="M753.09 99.0722C753.358 96.6756 752.224 94.5818 750.557 94.3956C748.891 94.2093 747.323 96.001 747.055 98.3976C746.788 100.794 747.922 102.888 749.588 103.074C751.254 103.26 752.822 101.469 753.09 99.0722Z" fill="#E6E6E6"/>
<path d="M775.81 90.5327C776.078 88.1362 774.944 86.0424 773.278 85.8561C771.611 85.6698 770.043 87.4616 769.776 89.8581C769.508 92.2546 770.642 94.3484 772.308 94.5347C773.975 94.721 775.543 92.9292 775.81 90.5327Z" fill="#FF6584"/>
<path d="M747.82 67.4619C748.087 65.0654 746.954 62.9716 745.287 62.7853C743.621 62.599 742.053 64.3908 741.785 66.7873C741.518 69.1838 742.651 71.2776 744.318 71.4639C745.984 71.6502 747.552 69.8584 747.82 67.4619Z" fill="#3F3D56"/>
<path d="M921.16 264.259C924.107 264.259 926.496 261.869 926.496 258.921C926.496 255.972 924.107 253.582 921.16 253.582C918.213 253.582 915.824 255.972 915.824 258.921C915.824 261.869 918.213 264.259 921.16 264.259Z" fill="white"/>
<path d="M790.428 314.974C791.901 314.974 793.096 313.779 793.096 312.305C793.096 310.831 791.901 309.636 790.428 309.636C788.954 309.636 787.76 310.831 787.76 312.305C787.76 313.779 788.954 314.974 790.428 314.974Z" fill="white"/>
<path d="M1320.03 513.832C1321.5 513.832 1322.7 512.637 1322.7 511.162C1322.7 509.688 1321.5 508.493 1320.03 508.493C1318.55 508.493 1317.36 509.688 1317.36 511.162C1317.36 512.637 1318.55 513.832 1320.03 513.832Z" fill="white"/>
<path d="M975.854 391.047C977.328 391.047 978.522 389.852 978.522 388.378C978.522 386.904 977.328 385.709 975.854 385.709C974.381 385.709 973.186 386.904 973.186 388.378C973.186 389.852 974.381 391.047 975.854 391.047Z" fill="white"/>
<path d="M1023.88 112.113C1025.35 112.113 1026.55 110.918 1026.55 109.444C1026.55 107.97 1025.35 106.775 1023.88 106.775C1022.41 106.775 1021.21 107.97 1021.21 109.444C1021.21 110.918 1022.41 112.113 1023.88 112.113Z" fill="white"/>
<path d="M1460.1 214.878C1461.57 214.878 1462.77 213.683 1462.77 212.209C1462.77 210.735 1461.57 209.54 1460.1 209.54C1458.62 209.54 1457.43 210.735 1457.43 212.209C1457.43 213.683 1458.62 214.878 1460.1 214.878Z" fill="white"/>
<path d="M839.786 76.0787C841.26 76.0787 842.454 74.8836 842.454 73.4095C842.454 71.9353 841.26 70.7402 839.786 70.7402C838.313 70.7402 837.118 71.9353 837.118 73.4095C837.118 74.8836 838.313 76.0787 839.786 76.0787Z" fill="white"/>
<path d="M1333.35 184.301C1336.3 184.301 1338.69 181.911 1338.69 178.962C1338.69 176.014 1336.3 173.624 1333.35 173.624C1330.4 173.624 1328.01 176.014 1328.01 178.962C1328.01 181.911 1330.4 184.301 1333.35 184.301Z" fill="white"/>
<path d="M1535.46 766.747H1532.91C1532.91 751.345 1519.13 736.278 1491.94 721.957C1465.34 707.944 1427.2 695.345 1378.6 684.521C1371.42 682.92 1364.06 681.372 1356.54 679.877C1317.63 672.136 1274.41 665.797 1228.11 660.979C1218.54 659.978 1208.83 659.048 1198.98 658.19C1195.79 657.896 1192.58 657.629 1189.36 657.349C1180.4 656.615 1171.34 655.93 1162.19 655.293C1114.44 651.984 1064.31 650.182 1012.98 649.995C1009.96 649.968 1006.93 649.968 1003.9 649.968C937.061 649.968 921.968 656.575 921.076 662.127C918.794 676.167 996.094 704.367 1070.84 731.66C1153.59 761.849 1238.63 792.892 1267.59 819.331C1268.57 820.225 1269.49 821.119 1270.34 822H1266.84C1265.91 821.119 1264.9 820.225 1263.83 819.331C1233.25 793.76 1147.47 762.45 1070 734.169C974.474 699.309 916.053 677.154 918.552 661.673C919.635 654.973 930.317 647.299 1003.9 647.299C1006.3 647.299 1008.73 647.299 1011.14 647.312C1062.44 647.459 1112.58 649.221 1160.38 652.504C1169.73 653.131 1178.98 653.825 1188.13 654.586C1191.54 654.866 1194.93 655.147 1198.31 655.454C1208.4 656.334 1218.37 657.287 1228.2 658.31C1275.72 663.248 1320.04 669.787 1359.79 677.808C1366.37 679.143 1372.82 680.513 1379.14 681.919C1479.95 704.367 1535.46 734.489 1535.46 766.747Z" fill="#E6E6E6"/>
<path d="M1522.8 760.313H1520.13C1520.13 748.915 1473.59 736.712 1404.3 736.712C1335.02 736.712 1288.48 748.915 1288.48 760.313H1285.81C1285.81 743.869 1346.06 734.043 1404.3 734.043C1462.55 734.043 1522.8 743.869 1522.8 760.313Z" fill="#E6E6E6"/>
<path d="M1476.24 768.075H1473.58C1473.58 761.638 1445.29 754.465 1404.69 754.465C1364.1 754.465 1335.81 761.638 1335.81 768.075H1333.14C1333.14 757.502 1370 751.796 1404.69 751.796C1439.38 751.796 1476.24 757.502 1476.24 768.075Z" fill="#E6E6E6"/>
<path d="M1190.63 178.844C1220.1 178.844 1243.99 154.943 1243.99 125.459C1243.99 95.9759 1220.1 72.0749 1190.63 72.0749C1161.16 72.0749 1137.27 95.9759 1137.27 125.459C1137.27 154.943 1161.16 178.844 1190.63 178.844Z" fill="#F2F2F2"/>
<path d="M1182.62 182.848C1212.09 182.848 1235.99 158.947 1235.99 129.463C1235.99 99.9797 1212.09 76.0787 1182.62 76.0787C1153.15 76.0787 1129.26 99.9797 1129.26 129.463C1129.26 158.947 1153.15 182.848 1182.62 182.848Z" fill="#F2F2F2"/>
<path d="M1241.32 713.95L1191.31 713.949V713.316C1191.31 708.151 1193.36 703.197 1197.01 699.545C1200.66 695.892 1205.61 693.84 1210.77 693.84L1219.91 686.906L1236.96 693.841L1241.32 693.841L1241.32 713.95Z" fill="#F2F2F2"/>
<path d="M1218.04 686.925L1175.31 712.927L1174.98 712.386C1172.29 707.973 1171.47 702.675 1172.7 697.656C1173.92 692.638 1177.08 688.31 1181.49 685.626L1185.7 674.951L1203.86 672.014L1207.59 669.744L1218.04 686.925Z" fill="#F2F2F2"/>
<path d="M1247.42 545.155C1247.19 546.756 1246.86 552.202 1246.47 560.129C1244.59 598.566 1241.32 695.339 1241.32 695.339L1220.95 689C1220.95 689 1196.73 615.889 1200.73 575.851L1197.85 561.918L1192.91 538.108V538.095L1177.88 465.585C1177.88 465.585 1174.58 485.231 1174.31 489.835C1174.05 494.44 1171.38 495.774 1170.05 495.774C1163.36 495.774 1165.42 494.587 1166.39 501.193C1167.1 505.944 1161.31 533.184 1158 548.078C1156.72 553.87 1155.81 557.794 1155.81 557.794L1161.47 569.992L1208.36 671.156L1190.63 680.658L1119.9 575.784L1112.92 565.441L1111.43 553.843L1099.66 462.596C1099.66 462.596 1095.99 452.279 1099.66 452.012C1103.35 451.732 1105.43 452.893 1104.39 448.983C1103.35 445.059 1124.69 379.663 1124.69 379.663L1235.41 403.686C1235.41 403.686 1246.32 425.387 1242.08 435.717C1237.83 446.047 1245.56 526.043 1241.15 529.594C1236.75 533.144 1233.9 530.301 1239.99 536.4C1240.92 537.371 1242.02 538.167 1243.23 538.749C1246.99 540.457 1248.48 537.681 1247.42 545.155Z" fill="#F2F2F2"/>
<path d="M1182.28 162.722C1199.26 162.722 1213.03 148.946 1213.03 131.952C1213.03 114.958 1199.26 101.181 1182.28 101.181C1165.29 101.181 1151.52 114.958 1151.52 131.952C1151.52 148.946 1165.29 162.722 1182.28 162.722Z" fill="#A0616A"/>
<path d="M1206.25 158.452L1194.05 160.788C1194.05 160.788 1205.39 142.477 1204.73 134.096C1204.06 125.714 1194.93 122.711 1194.93 122.711C1194.93 122.711 1189.88 123.806 1184.56 124.42C1183.92 122.624 1183.09 120.901 1182.09 119.281C1181.89 121.373 1180.96 123.328 1179.47 124.807C1177.52 124.974 1175.56 124.747 1173.7 124.139C1171.59 123.178 1171.63 121.51 1172.32 119.949C1165.45 120.516 1158.75 122.358 1152.55 125.38C1152.25 121.283 1152.4 117.164 1153.02 113.102C1153.31 113.022 1153.61 112.929 1153.9 112.835C1155.72 112.26 1157.47 111.495 1159.13 110.553C1157.28 110.308 1155.56 109.497 1154.19 108.231C1155.31 104.948 1157.1 102.105 1159.92 100.717C1162.63 99.3881 1165.6 98.6587 1168.62 98.5781C1171.64 98.4976 1174.65 99.0676 1177.43 100.25C1177.43 100.25 1170.91 95.4852 1173.31 93.5366C1173.47 93.6968 1173.63 93.8436 1173.8 93.9904C1174.03 94.1772 1174.28 94.3774 1174.52 94.5643C1176 95.7654 1178.22 94.0705 1178.51 92.2554C1178.54 92.0262 1178.59 91.7989 1178.65 91.5748C1178.69 91.3879 1178.74 91.2011 1178.79 91.0276C1178.84 90.8736 1178.89 90.7221 1178.95 90.5738C1183.39 89.5061 1196.83 93.8436 1201.99 103.399C1201.99 103.399 1238.08 120.749 1206.25 158.452Z" fill="#3F3D56"/>
<path d="M1195.1 432.795C1194.66 429.721 1195.43 426.595 1197.26 424.082C1199.08 421.569 1201.81 419.867 1204.87 419.338C1205.49 419.24 1206.12 419.194 1206.76 419.201L1238.91 344.487L1260.98 361.057L1218.02 431.837C1217.79 434.453 1216.71 436.919 1214.93 438.851C1213.15 440.783 1210.78 442.072 1208.2 442.517C1206.72 442.756 1205.21 442.702 1203.76 442.359C1202.31 442.015 1200.94 441.388 1199.72 440.514C1198.51 439.64 1197.49 438.536 1196.7 437.264C1195.92 435.993 1195.39 434.58 1195.15 433.104C1195.13 433.002 1195.12 432.899 1195.1 432.795Z" fill="#FFC561"/>
<path d="M1105.02 438.885C1107.18 436.658 1108.39 433.675 1108.39 430.569C1108.39 427.463 1107.18 424.48 1105.01 422.255C1104.56 421.81 1104.08 421.402 1103.56 421.037L1121.38 341.667L1093.8 342.121L1087.03 424.647C1085.68 426.9 1085.11 429.535 1085.42 432.144C1085.72 434.752 1086.88 437.185 1088.71 439.065C1089.77 440.125 1091.02 440.966 1092.4 441.542C1093.78 442.117 1095.25 442.416 1096.75 442.42C1098.24 442.424 1099.72 442.133 1101.1 441.565C1102.48 440.997 1103.74 440.163 1104.8 439.109C1104.87 439.035 1104.95 438.961 1105.02 438.885Z" fill="#FFC561"/>
<path d="M1282.77 306.019C1278.77 311.358 1273.43 305.338 1278.77 313.026C1282.44 318.311 1261.41 367.852 1247.95 398.201C1241.87 411.934 1237.32 421.743 1237.32 421.743L1214.63 408.597L1211.97 407.063C1211.97 407.063 1232.78 354.666 1239.48 335.834C1240.59 332.711 1241.32 330.509 1241.49 329.628C1242.75 323.369 1242.91 318.004 1241.49 316.015C1241.16 315.274 1240.88 314.512 1240.64 313.733C1237.96 305.872 1229.8 279.327 1222.15 254.223C1219.92 246.856 1217.72 239.622 1215.72 233.016C1210.59 216.053 1206.73 203.254 1206.73 203.254L1237.41 204.589C1237.41 204.589 1237.92 205.443 1238.81 206.991C1240.95 210.674 1245.32 218.268 1250.39 227.397C1254.05 233.963 1258.08 241.344 1261.88 248.604C1271.56 267.075 1279.9 284.865 1277.43 287.335C1272.1 292.673 1266.64 289.643 1273.36 296.49C1280.1 303.35 1286.77 300.681 1282.77 306.019Z" fill="#F2F2F2"/>
<path d="M1246.08 376.995C1238.08 369.067 1239.56 332.939 1239.56 332.939C1239.56 332.939 1247.52 211.623 1236.74 203.495C1229.29 198.114 1221.36 193.427 1213.05 189.495C1212.57 189.282 1212.32 189.162 1212.32 189.162L1205.43 169.743L1163.02 167.541L1155.62 181.928C1155.62 181.928 1154.46 182.008 1152.65 182.262C1145.87 183.196 1129.94 186.506 1131.35 196.822C1133.14 209.901 1120.52 290.232 1116.68 294.249C1112.84 298.266 1113.85 312.947 1123.35 322.276C1132.85 331.605 1126.02 356.976 1119.35 367.653C1115.35 374.188 1113.5 381.817 1114.07 389.46C1114.07 389.46 1119.35 418.368 1132.69 409.026C1137.77 405.462 1144.99 405.009 1153.67 405.663C1153.76 405.669 1153.85 405.68 1153.93 405.686L1153.67 406.997C1165.73 407.891 1180.63 410.921 1196.57 410.747L1196.1 409.407C1196.26 409.406 1196.42 409.415 1196.57 409.413C1199.27 409.387 1201.98 409.266 1204.73 409.026C1228.5 406.958 1239 413.497 1242.08 406.357C1245.16 399.217 1254.08 384.923 1246.08 376.995Z" fill="#F2F2F2"/>
<path opacity="0.3" d="M1182.63 169.502C1204.73 169.502 1222.65 151.576 1222.65 129.463C1222.65 107.351 1204.73 89.4248 1182.63 89.4248C1160.52 89.4248 1142.6 107.351 1142.6 129.463C1142.6 151.576 1160.52 169.502 1182.63 169.502Z" fill="#FFC561"/>
<path d="M1163.38 189.908C1163.38 189.908 1157.29 210.114 1150.21 233.43C1147.98 240.77 1145.65 248.417 1143.38 255.851C1135.97 280.021 1129.22 301.802 1128.6 302.669C1127.18 304.658 1127.36 310.023 1128.6 316.282C1128.85 317.537 1128.28 322.422 1127.2 329.428C1125.78 338.624 1123.5 351.463 1121.07 364.569C1119.14 375.045 1117.11 385.682 1115.36 394.744C1112.63 408.811 1110.59 419.074 1110.59 419.074H1085.24C1085.24 419.074 1090.01 312.692 1095.34 305.018C1100.68 297.331 1095.34 303.35 1091.34 298.012C1087.34 292.673 1094.01 295.342 1100.73 288.482C1107.45 281.636 1102.01 284.665 1096.68 279.327C1094.7 277.352 1099.12 264.766 1105.47 249.699C1108.43 242.705 1111.8 235.165 1115.14 227.904C1122.03 212.917 1128.8 199.13 1131.48 193.685C1131.48 193.672 1131.49 193.658 1131.49 193.645L1132.69 191.243L1163.38 189.908Z" fill="#F2F2F2"/>
<path d="M1218.64 194.859C1190.79 205.683 1165.75 207.548 1145.27 194.859V170.836C1169.39 185.312 1193.85 184.916 1218.64 170.836V194.859Z" fill="#3F3D56"/>
<path d="M1239.99 348.34C1196.94 359.163 1158.24 361.029 1126.6 348.34V324.317C1163.86 338.792 1201.68 338.397 1239.99 324.317V348.34Z" fill="#3F3D56"/>
<path d="M1247.42 545.155C1247.19 546.756 1246.86 552.202 1246.47 560.129C1230.4 562.735 1214.07 563.335 1197.85 561.918L1192.91 538.108C1209.53 541.144 1226.54 541.36 1243.23 538.749C1246.99 540.457 1248.48 537.681 1247.42 545.155Z" fill="#3F3D56"/>
<path d="M1161.47 569.992C1147.79 573.037 1133.89 574.974 1119.9 575.784L1112.92 565.441L1111.43 553.843C1127.15 554.249 1142.85 552.305 1158 548.078C1156.72 553.87 1155.81 557.794 1155.81 557.794L1161.47 569.992Z" fill="#3F3D56"/>
<path d="M1165.28 245.574C1165.28 249.114 1163.88 252.509 1161.38 255.012C1158.87 257.515 1155.48 258.921 1151.94 258.921C1148.4 258.921 1145.01 257.515 1142.51 255.012C1140.01 252.509 1138.6 249.114 1138.6 245.574C1138.6 238.204 1150.61 222.886 1151.94 232.228C1153.28 241.571 1165.28 238.204 1165.28 245.574Z" fill="#FFC561"/>
<path d="M1153.39 222.946C1152.91 222.906 1152.43 222.892 1151.94 222.892C1146.13 222.9 1140.55 225.132 1136.34 229.131C1132.12 233.13 1129.6 238.591 1129.29 244.393C1129.27 244.78 1129.26 245.18 1129.26 245.581C1129.26 246.128 1129.27 246.662 1129.33 247.196C1129.66 251.946 1131.49 256.471 1134.54 260.127C1137.59 263.783 1141.71 266.385 1146.32 267.564C1150.94 268.743 1155.8 268.438 1160.23 266.694C1164.66 264.949 1168.43 261.854 1171 257.846C1171.52 257.055 1171.98 256.23 1172.39 255.377C1173.99 252.03 1174.75 248.341 1174.6 244.633C1174.44 240.925 1173.38 237.312 1171.51 234.11C1169.63 230.908 1167 228.216 1163.84 226.269C1160.68 224.323 1157.1 223.181 1153.39 222.946ZM1169.05 257.459C1166.96 259.976 1164.35 262.008 1161.39 263.414C1158.44 264.82 1155.21 265.566 1151.94 265.6C1147.07 265.593 1142.36 263.81 1138.71 260.584C1135.06 257.359 1132.7 252.912 1132.09 248.076C1131.98 247.249 1131.93 246.415 1131.93 245.581C1131.93 245.465 1131.93 245.349 1131.94 245.234C1132.03 239.987 1134.18 234.986 1137.92 231.307C1141.66 227.628 1146.69 225.565 1151.94 225.562C1152.06 225.882 1152.18 226.189 1152.31 226.482C1158.01 239.962 1170.36 238.948 1171.95 245.581C1172.72 248.787 1172.25 252.165 1170.64 255.043C1170.19 255.896 1169.66 256.705 1169.05 257.459Z" fill="#FFC561"/>
</g>
<defs>
<clipPath id="clip0_7_2">
<rect width="1536" height="909" fill="white"/>
</clipPath>
</defs>
</svg>
