<svg width="248" height="97" viewBox="0 0 248 97" fill="none" xmlns="http://www.w3.org/2000/svg">
<path d="M1 66.3668C6.54103 63.8198 13.2751 62.25 19.1152 60.6116C35.0309 56.1466 51.396 52.3784 66.9485 47.0262C77.905 43.2556 90.4243 38.6157 96.3456 29.2124C101.481 21.0565 98.6498 11.138 90.4295 5.36933C75.6614 -4.99433 59.0068 4.75419 51.9519 17.1538C38.6971 40.4504 46.3157 70.4277 75.1119 82.1056C102.801 93.3346 148.942 89.9642 165.825 65.2706C171.819 56.5046 171.857 45.9093 167.614 36.7294C167.122 35.6643 158.687 20.9404 154.773 26.5893C150.791 32.3351 151.614 42.8836 152.067 48.9837C152.841 59.4097 155.043 70.5 162.478 79.1301C180.731 100.318 220.513 95.7364 247 95.2604" stroke="black" stroke-linecap="round"/>
</svg>
